<svg xmlns="http://www.w3.org/2000/svg" width="90" height="90" viewBox="0 0 90 90">
  <g id="Group_57" data-name="Group 57" transform="translate(-602 -4839)">
    <circle id="Ellipse_5" data-name="Ellipse 5" cx="45" cy="45" r="45" transform="translate(602 4839)" fill="#fff" opacity="0.2"/>
    <g id="Group_60" data-name="Group 60" transform="translate(624.5 4861.5)">
      <path id="Path_23" data-name="Path 23" d="M0,0H45V45H0Z" fill="none"/>
      <path id="Path_24" data-name="Path 24" d="M2.457,11.853,19.831,1.435a1.879,1.879,0,0,1,1.933,0l17.358,10.42a.94.94,0,0,1,.457.806v23.9A1.879,1.879,0,0,1,37.7,38.436H3.879A1.879,1.879,0,0,1,2,36.557v-23.9a.94.94,0,0,1,.457-.806Zm3.3,2.4V34.678H35.821V14.255L20.8,5.235,5.758,14.255ZM20.9,24.714l9.951-8.387,2.42,2.875-12.345,10.4L8.321,19.216l2.39-2.9Z" transform="translate(1.71 0.998)" fill="#fff"/>
    </g>
  </g>
</svg>
