<svg xmlns="http://www.w3.org/2000/svg" width="90" height="90" viewBox="0 0 90 90">
  <g id="Group_57" data-name="Group 57" transform="translate(-602 -4839)">
    <circle id="Ellipse_5" data-name="Ellipse 5" cx="45" cy="45" r="45" transform="translate(602 4839)" fill="#fff" opacity="0.2"/>
    <g id="Group_56" data-name="Group 56" transform="translate(625 4862)">
      <path id="Path_21" data-name="Path 21" d="M0,0H45V45H0Z" fill="none"/>
      <path id="Path_22" data-name="Path 22" d="M8.842,5.776V35.981H28.05V5.776ZM6.921,2h23.05a1.9,1.9,0,0,1,1.921,1.888V37.869a1.9,1.9,0,0,1-1.921,1.888H6.921A1.9,1.9,0,0,1,5,37.869V3.888A1.9,1.9,0,0,1,6.921,2ZM18.446,30.318a1.888,1.888,0,1,1-1.921,1.888A1.9,1.9,0,0,1,18.446,30.318Z" transform="translate(4.054 1.622)" fill="#fff"/>
    </g>
  </g>
</svg>
